# xmcd
#
# Track frame offsets:
#       150
#       20242
#       40705
#       60820
#       72802
#       82000
#       97635
#       117527
#       140275
#       153515
#       168715
#       186002
#       203147
#       229130
#       248962
#
# Disc length: 3840 seconds
#
# Revision: 1
# Processed by: cddbd v1.5.1PL0 Copyright (c) Steve Scherf et al.
# Submitted via: MusiCat 1.1
#
DISCID=c50efe0f
DTITLE=Coletânea - Cordas - Coletânea-Cordas
DYEAR=1900
DGENRE=
TTITLE0=Trenzinho Caipiora
TTITLE1=Num Pagode em Planaltina
TTITLE2=Arruado
TTITLE3=Triumfando
TTITLE4=Na poeira das ruas
TTITLE5=Disparada
TTITLE6=Casamata
TTITLE7=Mel
TTITLE8=Quase Branco
TTITLE9=Litorina
TTITLE10=Nasce uma mulher
TTITLE11=Preamar
TTITLE12=O horizonte dos olhos de Manu
TTITLE13=Tua
TTITLE14=Azul
EXTD=\n\n
EXTT0=
EXTT1=
EXTT2=
EXTT3=
EXTT4=
EXTT5=
EXTT6=
EXTT7=
EXTT8=
EXTT9=
EXTT10=
EXTT11=
EXTT12=
EXTT13=
EXTT14=
PLAYORDER=
